<?xml version="1.0" encoding="utf-8"?>
<!-- Generator: Adobe Illustrator 27.5.0, SVG Export Plug-In . SVG Version: 6.00 Build 0)  -->
<svg xmlns="http://www.w3.org/2000/svg" xmlns:xlink="http://www.w3.org/1999/xlink" version="1.1" x="0px" y="0px" viewBox="0 0 3710 3710" style="enable-;background-color:transparent;" xml:space="preserve">
<g id="Background">
	<g>
		<g>
			<rect style="fill:none;" width="3710" height="3710" fill="none"/>
		</g>
	</g>
</g>
<g id="Illustration">
	<g>
		<linearGradient id="SVGID_1_" gradientUnits="userSpaceOnUse" x1="3605.5161" y1="4056.6377" x2="1131.062" y2="983.521">
			<stop offset="0" style="stop-color:#DAE3FE"/>
			<stop offset="1" style="stop-color:#E9EFFD"/>
		</linearGradient>
		<path style="fill:url(#SVGID_1_);" d="M2924.778,2844.712c-56.837,59.836-110.616,98.423-153.106,128.91    c-499.457,358.366-1090.448,253.904-1216.05,228.393c-185.475-37.671-543.994-110.488-803.197-415.305    c-392.152-461.163-331.088-1187.712-26.909-1667.318c55.639-87.728,349.542-574.639,946.898-652.724    c361.513-47.256,782.922,48.054,1088.094,303.728C3401.093,1307.078,3355.49,2391.271,2924.778,2844.712z"/>
		<g>
			<g>
				<path style="fill:#7D97F4;" d="M1213.938,2280.105c0,0,8.583-360.853-157.623-457.434      c-166.205-96.581-482.221-156.963-494.065-675.114c-6.936-303.349-14.441-435.978-19.472-493.81      c-1.962-22.56,18.085-40.769,40.338-36.577c157.41,29.654,668.768,151.71,775.979,500.735      C1486.192,1531.677,1213.938,2280.105,1213.938,2280.105z"/>
				<path style="fill:#BDD0FB;" d="M704.851,761.335c172.789,154.104,372.589,426.836,479.083,699.569      c13.67,44.948,53.656,140.535,71.02,310.367c15.509,141.643,7.799,291.317-11.006,390.394      c-1.189,6.264-7.23,10.377-13.494,9.188c-10.771-2.043-9.338-13.627-9.241-13.262c21.477-169.275,12.562-379.966-36.65-570.071      c-62.873-233.426-203.104-459.741-348.149-651.688l-14.926-18.901C709.113,772.615,685.456,771.552,695.961,761.492      C698.443,759.116,702.326,759.095,704.851,761.335z"/>
			</g>
			<g>
				<path style="fill:#91B3FA;" d="M1481.036,2973.895c22.487,11.026-212.884-284.954-286.615-749.814      c-34.743-219.054-35.197-493.51-159.979-599.275c-103.853-88.026-457.249-32.452-572.881-11.332      c-14.449,2.639-19.313,20.891-8.066,30.337c55.452,46.57,174.073,156.417,204.981,267.122      c40.739,145.918,179.466,238.729,303.662,263.848c124.196,25.118,193.283,49.494,253.788,248.11      C1276.43,2621.507,1417.141,2942.565,1481.036,2973.895z"/>
				<path style="fill:#BDD0FB;" d="M624.19,1675.126c147.528,6.179,305.888,73.476,386.25,199.712l7.585,12.046      c17.519,28.245,116.803,229.033,171.946,395.476c0.686,2.075-0.438,4.315-2.513,5.002c-3.525,1.167-5.29-2.712-4.953-2.369      c-38.419-94.028-93.598-213.24-137.545-302.388c-47.129-97.279-80.11-163.159-187.609-226.262      c-119.65-67.959-233.957-74.955-233.615-74.885c-1.744-0.178-3.015-1.737-2.836-3.481      C621.069,1676.299,622.527,1675.06,624.19,1675.126z"/>
			</g>
			<g>
				<path style="fill:#7D97F4;" d="M1380.135,3012.832c13.344,7.036-75.166-145.309-81.957-279.527      c-6.792-134.218-37.071-363.297-152.815-500.331c-115.744-137.034-242.494-149.536-402.205-24.96      c-133.093,103.813-216.113,156.204-264.801,165.943c-12.056,2.411-18.208,16.022-12.342,26.826      c31.228,57.508,119.516,189.603,267.757,180.303c189.091-11.862,418.255-134.785,488.101-32.241      c69.846,102.543,60.877,159.92,63.023,208.517C1287.043,2805.959,1291.826,2966.271,1380.135,3012.832z"/>
				<path style="fill:#BDD0FB;" d="M796.813,2372.554c57.928-55.535,152.271-110.108,234.723-99.933      c107.277,17.28,178.738,88.918,217.72,195.558c15.239,45.28,21.507,69.451,30.516,124.954c0.72,4.432-5.818,5.756-6.906,1.429      c-6.556-26.07-13.049-53.367-22.763-81.6c-56.544-182.149-177.247-206.683-181.942-210.411      c-9.125,0.9-64.446-40.513-195.711,30.121c-24.512,13.342-48.372,28.572-70.773,45.37l-0.124,0.093      c-1.621,1.216-3.92,0.887-5.135-0.734C795.293,2375.901,795.491,2373.819,796.813,2372.554z"/>
			</g>
		</g>
		<g>
			<g>
				
					<linearGradient id="SVGID_00000034065126443072925940000006175367924917165997_" gradientUnits="userSpaceOnUse" x1="1083.355" y1="1909.582" x2="2696.3596" y2="1909.582" gradientTransform="matrix(0.9998 -0.0219 0.0219 0.9998 28.2232 -27.654)">
					<stop offset="0" style="stop-color:#09005D"/>
					<stop offset="1" style="stop-color:#1A0F91"/>
				</linearGradient>
				<path style="fill:url(#SVGID_00000034065126443072925940000006175367924917165997_);" d="M1269.629,655.263      c-62.54,5.439-110.489,57.816-110.667,120.592c-1.089,383.901-2.885,1708.078,22.137,2176.762      c2.651,49.653,43.358,88.659,93.079,89.194c245.921,2.647,953.303,7.512,1354.887-18.176      c83.643-5.35,148.732-74.626,148.63-158.44c-0.488-402.917-6.926-1536.061-62.118-2054.007      c-6.613-62.058-56.498-110.497-118.719-115.346C2328.643,674.944,1616.397,625.104,1269.629,655.263z"/>
				
					<linearGradient id="SVGID_00000135685736238705088560000005077920004046482878_" gradientUnits="userSpaceOnUse" x1="1249.3655" y1="1789.4899" x2="2666.4814" y2="1789.4899">
					<stop offset="0" style="stop-color:#4F52FF"/>
					<stop offset="1" style="stop-color:#4042E2"/>
				</linearGradient>
				<path style="fill:url(#SVGID_00000135685736238705088560000005077920004046482878_);" d="M1257.677,876.462      c-4.83,328.393-18.58,1420.821,5.424,1824.017c3.508,58.933,49.286,105.46,105.811,107.429      c232.729,8.111,829.524,23.805,1169.588-13.613c61.234-6.738,108.034-59.814,109.666-124.083      c8.506-335.124,31.483-1352.594,8.154-1751.281c-3.722-63.602-52.313-114.351-113.224-118.456      c-251.99-16.98-899.071-56.138-1188.25-32.056C1300.561,772.94,1258.513,819.609,1257.677,876.462z"/>
				<path style="fill:#1F5AA9;" d="M1819.977,712.36c0.199,9.072,7.434,16.4,16.505,16.675c44.781,1.361,170.93,5.222,227.315,7.254      c11.117,0.4,19.613-9.771,17.267-20.646c-0.193-0.343-1.637-14.285-15.877-15.275c-38.141-2.652-153.211-9.802-229.253-5.415      C1820.32,695.854,1819.471,713.612,1819.977,712.36z"/>
				<path style="fill:#7D97F4;" d="M2424.647,2222.367H1472.28c-43.842,0-79.383-35.541-79.383-79.383V974.45      c0-44.25,36.18-79.958,80.427-79.376l952.367,12.526c43.431,0.571,78.339,35.941,78.339,79.376v1156.009      C2504.03,2186.826,2468.489,2222.367,2424.647,2222.367z"/>
			</g>
			<path style="fill:#7D97F4;" d="M2563.069,2328.461H1332.167c-12.552,0-22.728-13.079-22.728-29.213     c0-16.135,10.176-29.213,21.66-29.213H2562c13.621,0,23.796,13.079,23.796,29.213     C2585.797,2315.382,2575.621,2328.461,2563.069,2328.461z"/>
			
				<linearGradient id="SVGID_00000046310957857208414170000015949222037750573454_" gradientUnits="userSpaceOnUse" x1="1594.7595" y1="2459.1235" x2="2014.5182" y2="1565.4435">
				<stop offset="0" style="stop-color:#FE7062"/>
				<stop offset="1" style="stop-color:#FF928E"/>
			</linearGradient>
			<path style="fill:url(#SVGID_00000046310957857208414170000015949222037750573454_);" d="M2004.41,2327.777h-666.827     c-15.544,0-28.145-13.863-28.145-30.965c0-17.102,12.6-30.965,28.145-30.965h666.827c15.544,0,28.144,13.863,28.144,30.965     C2032.554,2313.914,2019.954,2327.777,2004.41,2327.777z"/>
			
				<linearGradient id="SVGID_00000021081567216764315540000006100930554496179354_" gradientUnits="userSpaceOnUse" x1="2128.8931" y1="2178.0076" x2="1902.8586" y2="2451.0391">
				<stop offset="0" style="stop-color:#E1473D"/>
				<stop offset="1" style="stop-color:#E9605A"/>
			</linearGradient>
			<circle style="fill:url(#SVGID_00000021081567216764315540000006100930554496179354_);" cx="2032.554" cy="2294.377" r="57.68"/>
			<g>
				<path style="fill:none;" d="M1868.664,2422.039v218.576c0,14.031,11.323,22.371,21.095,15.573l172.938-120.308      c10.702-7.445,10.702-27.567,0-33.659l-172.938-98.425C1879.986,2398.234,1868.664,2408.007,1868.664,2422.039z"/>
				<g>
					<g>
						<path style="fill:none;" d="M2282.046,2441.891v118.256c0,7.591,6.02,12.127,11.218,8.468l92.313-64.988        c5.733-4.036,5.733-14.966,0-18.279l-92.313-53.34C2288.066,2429.004,2282.046,2434.3,2282.046,2441.891z"/>
						<path style="fill:none;" d="M2341.256,2440.227v117.955c0,7.572,5.989,12.097,11.161,8.447l91.844-64.815        c5.704-4.025,5.704-14.928,0-18.233l-91.844-53.211C2347.245,2427.373,2341.256,2432.655,2341.256,2440.227z"/>
					</g>
					<g>
						<path style="fill:none;" d="M1649.712,2459.665v121.478c0,7.798-6.356,12.88-11.849,9.483l-98.397-60.849        c-6.164-3.812-6.164-15.148,0-18.948l98.397-60.669C1643.356,2446.772,1649.712,2451.866,1649.712,2459.665z"/>
						<path style="fill:none;" d="M1586.908,2461.43v121.798c0,7.819-6.389,12.915-11.912,9.51l-98.917-61.002        c-6.197-3.822-6.197-15.188,0-18.999l98.917-60.836C1580.518,2448.504,1586.908,2453.611,1586.908,2461.43z"/>
					</g>
				</g>
			</g>
		</g>
		<g>
			<g>
				<g>
					
						<linearGradient id="SVGID_00000151544503539535320710000013925791737968894378_" gradientUnits="userSpaceOnUse" x1="2568.7102" y1="2893.25" x2="2907.2246" y2="2097.741">
						<stop offset="0" style="stop-color:#FEBBBA"/>
						<stop offset="1" style="stop-color:#FF928E"/>
					</linearGradient>
					<path style="fill:url(#SVGID_00000151544503539535320710000013925791737968894378_);" d="M3120.127,2878.099l-1007.297,0.001       V2683.89l1007.297,0.001C3098.567,2683.891,3098.567,2878.099,3120.127,2878.099z"/>
					
						<linearGradient id="SVGID_00000036250703407623938980000016079137099675253388_" gradientUnits="userSpaceOnUse" x1="2930.6003" y1="1289.0304" x2="2402.5188" y2="3651.8611">
						<stop offset="0" style="stop-color:#E1473D"/>
						<stop offset="1" style="stop-color:#E9605A"/>
					</linearGradient>
					<path style="fill:url(#SVGID_00000036250703407623938980000016079137099675253388_);" d="M2112.83,2829.501v-88.88       c0-31.332,19.906-56.73,44.461-56.73h958.588c19.31,0,34.964-15.08,34.964-33.682c0-5.652-4.756-10.233-10.623-10.233H2092.558       c-24.026,0-62.172,36.388-62.172,81.275v124.131c0,42.322,37.033,76.63,59.686,76.63h1044.638       c8.911,0,16.135-6.959,16.135-15.542c0-15.669-13.186-28.371-29.452-28.371h-970.474       C2129.883,2878.099,2112.83,2856.341,2112.83,2829.501z"/>
				</g>
				<path style="opacity:0.46;fill:none;" d="M3085.245,2727.123h-944.48c-1.871,0-3.385-1.516-3.385-3.385      s1.514-3.385,3.385-3.385h944.48c1.871,0,3.385,1.516,3.385,3.385S3087.116,2727.123,3085.245,2727.123z"/>
				<path style="opacity:0.46;fill:none;" d="M3085.245,2755.95h-944.48c-1.871,0-3.385-1.516-3.385-3.385      s1.514-3.385,3.385-3.385h944.48c1.871,0,3.385,1.516,3.385,3.385S3087.116,2755.95,3085.245,2755.95z"/>
				<path style="opacity:0.46;fill:none;" d="M3085.245,2784.778h-944.48c-1.871,0-3.385-1.516-3.385-3.385      c0-1.869,1.514-3.385,3.385-3.385h944.48c1.871,0,3.385,1.516,3.385,3.385      C3088.631,2783.262,3087.116,2784.778,3085.245,2784.778z"/>
				<path style="opacity:0.46;fill:none;" d="M3085.245,2813.604h-944.48c-1.871,0-3.385-1.516-3.385-3.385      s1.514-3.385,3.385-3.385h944.48c1.871,0,3.385,1.516,3.385,3.385S3087.116,2813.604,3085.245,2813.604z"/>
				<path style="opacity:0.46;fill:none;" d="M3085.245,2842.431h-944.48c-1.871,0-3.385-1.516-3.385-3.385      c0-1.87,1.514-3.385,3.385-3.385h944.48c1.871,0,3.385,1.516,3.385,3.385      C3088.631,2840.916,3087.116,2842.431,3085.245,2842.431z"/>
			</g>
			<g>
				
					<linearGradient id="SVGID_00000150823189620553477060000011510998039681645191_" gradientUnits="userSpaceOnUse" x1="2505.3931" y1="3430.1572" x2="2737.4409" y2="2245.6719">
					<stop offset="0" style="stop-color:#FE7062"/>
					<stop offset="1" style="stop-color:#FF928E"/>
				</linearGradient>
				<path style="fill:url(#SVGID_00000150823189620553477060000011510998039681645191_);" d="M1916.991,3244.45H3230.13      c8.622,0,15.611-6.989,15.611-15.611v-293.285c0-8.622-6.989-15.611-15.611-15.611H1916.991      c-8.622,0-15.611,6.989-15.611,15.611v293.285C1901.381,3237.461,1908.37,3244.45,1916.991,3244.45z"/>
				
					<linearGradient id="SVGID_00000030483752570554323000000004245766203872675766_" gradientUnits="userSpaceOnUse" x1="-4237.5991" y1="-372.8326" x2="-4835.5142" y2="1452.3798" gradientTransform="matrix(-1 0 0 1 -2354.5774 0)">
					<stop offset="0" style="stop-color:#E1473D"/>
					<stop offset="1" style="stop-color:#E9605A"/>
				</linearGradient>
				<path style="fill:url(#SVGID_00000030483752570554323000000004245766203872675766_);" d="M2943.118,3207.155h143.448      c4,0,7.242-3.242,7.242-7.242V2964.48c0-4-3.242-7.242-7.242-7.242h-143.448c-4,0-7.242,3.242-7.242,7.242v235.433      C2935.876,3203.913,2939.119,3207.155,2943.118,3207.155z"/>
				
					<linearGradient id="SVGID_00000151542954229333653580000014012237049473395112_" gradientUnits="userSpaceOnUse" x1="-4128.8462" y1="-322.4385" x2="-4724.9897" y2="1497.3672" gradientTransform="matrix(-1 0 0 1 -2354.5774 0)">
					<stop offset="0" style="stop-color:#E1473D"/>
					<stop offset="1" style="stop-color:#E9605A"/>
				</linearGradient>
				<path style="fill:url(#SVGID_00000151542954229333653580000014012237049473395112_);" d="M2865.843,3207.155h47.477      c3.253,0,5.89-2.637,5.89-5.89v-238.136c0-3.253-2.637-5.89-5.89-5.89h-47.477c-3.253,0-5.89,2.637-5.89,5.89v238.136      C2859.953,3204.518,2862.59,3207.155,2865.843,3207.155z"/>
			</g>
		</g>
		<g>
			<path style="fill:#91B3FA;" d="M2163.107,578.816c10.2-11.644,24.256-18.019,38.537-17.691l991.264,22.78     c28.951,0.667,53.904,28.182,53.904,61.897V795.82c0,34.009-25.215,61.651-54.422,61.907l-845.828,7.444     c-35.106,27.911-114.691,96.802-147.323,125.32c-2.08,1.819-5.132,1.884-7.274,0.165c-2.14-1.719-3.205-4.841-2.482-7.751     l28.905-116.613l-17.106,0.152c-14.171,0.125-28.333-6.343-38.392-17.966c-10.059-11.623-16.251-27.442-16.251-43.943V623.023     C2146.639,606.392,2152.908,590.46,2163.107,578.816z"/>
			<path style="opacity:0.83;fill:none;" d="M3200.548,666.519c0-2.804-1.807-5.078-4.036-5.078h-643.006     c-2.229,0-4.036,2.273-4.036,5.078l0,0c0,2.804,1.807,5.078,4.036,5.078h643.006     C3198.742,671.597,3200.548,669.323,3200.548,666.519L3200.548,666.519z"/>
			<path style="opacity:0.83;fill:none;" d="M3043.704,771.459c0-2.804-2.273-5.078-5.078-5.078h-809.051     c-2.804,0-5.078,2.273-5.078,5.078l0,0c0,2.804,2.273,5.078,5.078,5.078h809.051     C3041.43,776.536,3043.704,774.263,3043.704,771.459L3043.704,771.459z"/>
			<path style="opacity:0.83;fill:none;" d="M2488.539,666.519c0-2.804-2.273-5.078-5.078-5.078h-260.656     c-2.804,0-5.078,2.273-5.078,5.078l0,0c0,2.804,2.273,5.078,5.078,5.078h260.656     C2486.266,671.597,2488.539,669.323,2488.539,666.519L2488.539,666.519z"/>
			<path style="opacity:0.83;fill:none;" d="M2701.803,724.067c0-2.804-2.273-5.078-5.078-5.078h-260.656     c-2.804,0-5.078,2.273-5.078,5.078l0,0c0,2.804,2.273,5.078,5.078,5.078h260.656     C2699.53,729.144,2701.803,726.871,2701.803,724.067L2701.803,724.067z"/>
			<path style="opacity:0.83;fill:none;" d="M3197.858,724.067c0-2.804-1.807-5.078-4.035-5.078h-473.51     c-2.229,0-4.036,2.273-4.036,5.078l0,0c0,2.804,1.807,5.078,4.036,5.078h473.51     C3196.051,729.144,3197.858,726.871,3197.858,724.067L3197.858,724.067z"/>
			<path style="opacity:0.83;fill:none;" d="M2386.985,724.067c0-2.804-2.273-5.078-5.078-5.078H2219.42     c-2.804,0-5.078,2.273-5.078,5.078l0,0c0,2.804,2.273,5.078,5.078,5.078h162.487     C2384.711,729.144,2386.985,726.871,2386.985,724.067L2386.985,724.067z"/>
		</g>
		<g>
			<defs>
				<path id="SVGID_00000089550930642113313020000014032881956788883132_" d="M2891.895,2222.367H1508.23      c-63.697,0-115.333-38.67-115.333-86.373V864.571c0-48.146,52.566-86.998,116.85-86.365l1383.665,13.629      c63.1,0.621,113.816,39.106,113.816,86.365v1257.795C3007.228,2183.697,2955.592,2222.367,2891.895,2222.367z"/>
			</defs>
			<clipPath id="SVGID_00000152947582665490866360000013200567609188307591_">
				<use xlink:href="#SVGID_00000089550930642113313020000014032881956788883132_" style="overflow:visible;"/>
			</clipPath>
			<g style="clip-path:url(#SVGID_00000152947582665490866360000013200567609188307591_);">
				
					<linearGradient id="SVGID_00000104673239856315450450000013750847483624682164_" gradientUnits="userSpaceOnUse" x1="2300.801" y1="3394.1221" x2="1346.4197" y2="4432.2222">
					<stop offset="0" style="stop-color:#CB236D"/>
					<stop offset="1" style="stop-color:#4C246D"/>
				</linearGradient>
				<path style="fill:url(#SVGID_00000104673239856315450450000013750847483624682164_);" d="M1999.12,3471.454      c0,0-9.883,55.954-14.729,111.342c-1.894,21.648,14.795,40.444,36.506,41.348c73.761,3.072,231.538,9.046,288.155,6.519      c8.511-0.38,14.076-9.093,10.926-17.01c-2.64-6.633-7.731-11.996-14.217-14.977l-260.62-119.781L1999.12,3471.454z"/>
				
					<linearGradient id="SVGID_00000072270927282456769050000010716388092130802048_" gradientUnits="userSpaceOnUse" x1="1991.0236" y1="3471.2239" x2="2075.7964" y2="3471.2239">
					<stop offset="0" style="stop-color:#FEBBBA"/>
					<stop offset="1" style="stop-color:#FF928E"/>
				</linearGradient>
				<path style="fill:url(#SVGID_00000072270927282456769050000010716388092130802048_);" d="M1991.024,3438.577l7.94,66.929      c0,0,45.654,21.252,76.833-2.679l-18.907-74.584L1991.024,3438.577z"/>
				
					<linearGradient id="SVGID_00000029042613150354810820000000425604865771654843_" gradientUnits="userSpaceOnUse" x1="1790.0074" y1="2823.0242" x2="2070.3081" y2="2823.0242">
					<stop offset="0" style="stop-color:#09005D"/>
					<stop offset="1" style="stop-color:#1A0F91"/>
				</linearGradient>
				<path style="fill:url(#SVGID_00000029042613150354810820000000425604865771654843_);" d="M1996.992,2180.307      c-3.43,17.478-18.412,872.188,72.951,1255.213c1.49,6.25-1.678,12.691-7.626,15.122c-14.014,5.726-41.484,14.016-74.407,15.122      c-10.196,0.342-19.337-6.285-22.213-16.071c-26.116-88.868-151.257-534.12-167.582-959.456c-18.241-475.272,0-16.183,0-16.183      l10.699-293.784L1996.992,2180.307z"/>
				
					<linearGradient id="SVGID_00000104688693200691002510000008312903695440665743_" gradientUnits="userSpaceOnUse" x1="2086.7009" y1="3197.2893" x2="1132.3215" y2="4235.3877">
					<stop offset="0" style="stop-color:#CB236D"/>
					<stop offset="1" style="stop-color:#4C246D"/>
				</linearGradient>
				<path style="fill:url(#SVGID_00000104688693200691002510000008312903695440665743_);" d="M1699.322,3500.645      c0,0-15.733,28.248-30.964,103.308c-2.751,13.556,6.721,26.529,20.486,27.883c24.355,2.395,61.85,5.474,91.885,5.268      c13.846-0.095,24.651-12.151,22.982-25.896c-3.327-27.398-13.691-72.348-45.709-107.384L1699.322,3500.645z"/>
				
					<linearGradient id="SVGID_00000136375691074271095710000011936015033643769475_" gradientUnits="userSpaceOnUse" x1="1685.504" y1="3466.876" x2="1758.6974" y2="3466.876">
					<stop offset="0" style="stop-color:#FEBBBA"/>
					<stop offset="1" style="stop-color:#FF928E"/>
				</linearGradient>
				<path style="fill:url(#SVGID_00000136375691074271095710000011936015033643769475_);" d="M1685.504,3414.561l18.555,101.213      c0,0,18.346,13.646,54.639,3.754l-8.857-108.9L1685.504,3414.561z"/>
				
					<linearGradient id="SVGID_00000029045748011576971670000001126994558638979761_" gradientUnits="userSpaceOnUse" x1="1606.6125" y1="2813.8525" x2="2004.5491" y2="2813.8525">
					<stop offset="0" style="stop-color:#09005D"/>
					<stop offset="1" style="stop-color:#1A0F91"/>
				</linearGradient>
				<path style="fill:url(#SVGID_00000029045748011576971670000001126994558638979761_);" d="M1635.377,2206.536      c-74.721,450.952,16.209,1114.566,46.876,1244.451c1.878,7.951,8.296,14.043,16.355,15.38      c13.689,2.27,36.226,4.121,58.445-2.333c7.655-2.223,13.033-9.128,13.346-17.094c4.114-105.008-3.291-749.658,66.333-1004.426      c3.529-12.912,11.414-24.171,22.322-31.927l135.135-96.07l10.361-155.288L1635.377,2206.536z"/>
				<g>
					
						<linearGradient id="SVGID_00000008834642551892700880000006848122599573367458_" gradientUnits="userSpaceOnUse" x1="1967.4279" y1="1577.2028" x2="2468.4294" y2="757.9971">
						<stop offset="0" style="stop-color:#FE7062"/>
						<stop offset="1" style="stop-color:#FF928E"/>
					</linearGradient>
					<path style="fill:url(#SVGID_00000008834642551892700880000006848122599573367458_);" d="M2111.508,1352.068       c-223.928-3.7-471.007,58.797-471.007,58.797c-66.748,389.474-11.671,838.703-11.671,838.703       c173.359,45.463,368.918-27.795,368.918-27.795c28.814-162.791,163.249-620.938,163.249-620.938       c109.411-13.579,199.541-45.145,273.765-86.879c-56.616-65.626-83.306-149.133-94.899-198.495       C2260.69,1340.067,2180.576,1353.209,2111.508,1352.068z"/>
					
						<linearGradient id="SVGID_00000021827472601603893700000002990664330187143834_" gradientUnits="userSpaceOnUse" x1="2339.8623" y1="1259.6097" x2="2772.9509" y2="1259.6097">
						<stop offset="0" style="stop-color:#FEBBBA"/>
						<stop offset="1" style="stop-color:#FF928E"/>
					</linearGradient>
					<path style="fill:url(#SVGID_00000021827472601603893700000002990664330187143834_);" d="M2772.951,1022.234       c-21.998-26.569-49.838-14-49.838-14c-32.954,139.197-205.738,252.06-383.251,307.227       c11.594,49.363,38.283,132.869,94.899,198.495C2729.359,1348.316,2772.951,1022.234,2772.951,1022.234z"/>
				</g>
				<g>
					
						<linearGradient id="SVGID_00000169552813700594384760000005175218680353624993_" gradientUnits="userSpaceOnUse" x1="7771.3057" y1="1187.0142" x2="8061.9189" y2="1848.2247" gradientTransform="matrix(-1 0 0 1 10447.7783 0)">
						<stop offset="0" style="stop-color:#FEBBBA"/>
						<stop offset="1" style="stop-color:#FF928E"/>
					</linearGradient>
					<path style="fill:url(#SVGID_00000169552813700594384760000005175218680353624993_);" d="M2767.612,1028.991       c2.302,7.317-24.353,18.459-40.046-11.468c-0.549-14.343-9.271-75.79-0.701-87.475       c45.647-62.231,134.145-140.242,134.145-140.242c14.956,14.758,2.634,29.257,2.634,29.257l-42.931,44.723       c8.979,16.227,19.933,29.924,25.066,49.553c3.888,14.864,1.51,30.749-5.999,44.277c-7.536,13.577-17.817,31.225-27.536,45.037       C2793.846,1028.794,2767.612,1028.991,2767.612,1028.991z"/>
					
						<linearGradient id="SVGID_00000109028263687184772310000013296669239745720232_" gradientUnits="userSpaceOnUse" x1="2770.8721" y1="966.8072" x2="2892.1326" y2="780.3691">
						<stop offset="0" style="stop-color:#FEBBBA"/>
						<stop offset="1" style="stop-color:#FF928E"/>
					</linearGradient>
					<path style="fill:url(#SVGID_00000109028263687184772310000013296669239745720232_);" d="M2801.934,892.804l-39.122,33.165       l-12.283,33.021l34.882,38.696c0,0,11.728-65.517,20.445-79.699C2814.572,903.808,2810.052,896.951,2801.934,892.804z"/>
				</g>
				
					<linearGradient id="SVGID_00000027589335856384360020000008545586064660151216_" gradientUnits="userSpaceOnUse" x1="1709.0454" y1="1419.1832" x2="2210.0474" y2="599.9769">
					<stop offset="0" style="stop-color:#FE7062"/>
					<stop offset="1" style="stop-color:#FF928E"/>
				</linearGradient>
				<path style="fill:url(#SVGID_00000027589335856384360020000008545586064660151216_);" d="M1726.391,1627.692l-85.89-216.827      c0,0-209.16,142.116-243.558,322.303c39.521,2.91,111.436,13.19,181.827,48.733      C1594.238,1696.819,1726.391,1627.692,1726.391,1627.692z"/>
				
					<linearGradient id="SVGID_00000034083543229702911020000013561264433778531518_" gradientUnits="userSpaceOnUse" x1="1392.1755" y1="1873.068" x2="1940.2526" y2="1873.068">
					<stop offset="0" style="stop-color:#FEBBBA"/>
					<stop offset="1" style="stop-color:#FF928E"/>
				</linearGradient>
				<path style="fill:url(#SVGID_00000034083543229702911020000013561264433778531518_);" d="M1909.175,1831.72      c0,0-234.835,132.718-314.072,19.392c-16.452-23.531-20.384-46.917-16.332-69.212c-70.391-35.543-142.306-45.822-181.827-48.733      c-10.371,54.319-4.889,112.093,27.031,170.484c138.796,253.897,516.278-14.032,516.278-14.032L1909.175,1831.72z"/>
				<g>
					
						<linearGradient id="SVGID_00000099661294697359140200000011715258446911803015_" gradientUnits="userSpaceOnUse" x1="2106.0654" y1="1483.4027" x2="2407.4331" y2="2739.104">
						<stop offset="0" style="stop-color:#09005D"/>
						<stop offset="1" style="stop-color:#1A0F91"/>
					</linearGradient>
					<path style="fill:url(#SVGID_00000099661294697359140200000011715258446911803015_);" d="M1880.958,1999.621l128.164-447.577       c1.455-5.081,5.79-8.787,11.039-9.399c23.221-2.709,90.507-10.316,168.195-16.887c93.578-7.916,202.25-14.329,267.188-8.873       c9.232,0.776,14.811,10.54,10.705,18.846c-36.927,74.711-188.827,378.615-264.893,478.169       c-2.52,3.299-6.418,5.227-10.568,5.188l-297.362-2.767C1884.774,2016.241,1878.577,2007.94,1880.958,1999.621z"/>
					
						<linearGradient id="SVGID_00000139296061326394570160000014550159690192510349_" gradientUnits="userSpaceOnUse" x1="2294.7502" y1="1285.4696" x2="2230.5669" y2="1567.3176">
						<stop offset="0" style="stop-color:#4F52FF"/>
						<stop offset="1" style="stop-color:#4042E2"/>
					</linearGradient>
					<path style="fill:url(#SVGID_00000139296061326394570160000014550159690192510349_);" d="M2201.65,1486.955l92.922-15.483       c4.949-0.825,9.002,3.904,7.43,8.668l-9.199,27.873c-0.801,2.427-2.918,4.183-5.45,4.521l-89.417,11.944       c-4.627,0.618-8.44-3.586-7.377-8.13l5.695-24.335C2196.866,1489.393,2198.996,1487.397,2201.65,1486.955z"/>
					
						<linearGradient id="SVGID_00000152251515056942451170000007318709103968640947_" gradientUnits="userSpaceOnUse" x1="2261.1594" y1="1403.6958" x2="2230.4631" y2="1587.8744">
						<stop offset="0" style="stop-color:#4F52FF"/>
						<stop offset="1" style="stop-color:#4042E2"/>
					</linearGradient>
					<path style="fill:url(#SVGID_00000152251515056942451170000007318709103968640947_);" d="M2132.073,1565.621l7.655-39.873       c0.768-4,4.07-7.021,8.121-7.432l187.68-19.045c6.317-0.642,11.375,5.148,9.892,11.322l-11.932,49.686       c-0.956,3.975-4.415,6.847-8.499,7.052l-183.401,9.233C2135.619,1576.863,2130.947,1571.491,2132.073,1565.621z"/>
					
						<linearGradient id="SVGID_00000052091914202825065900000010120412478360602807_" gradientUnits="userSpaceOnUse" x1="1899.5602" y1="1815.6021" x2="2070.3083" y2="1815.6021">
						<stop offset="0" style="stop-color:#FEBBBA"/>
						<stop offset="1" style="stop-color:#FF928E"/>
					</linearGradient>
					<path style="fill:url(#SVGID_00000052091914202825065900000010120412478360602807_);" d="M1911.924,1891.486       c0,0-17.854-73.412-10.652-99.457c7.201-26.046,21.155-59.533,67.664-52.091c46.51,7.442,101.373,27.034,101.373,27.034       s-2.771,33.925-38.119,22.98l21.92,16.96c0,0-3.133,27.164-32.991,12.651l20.387,22.493c0,0-12.823,22.309-34.789,8       C1984.749,1835.748,1974.219,1900.326,1911.924,1891.486z"/>
				</g>
				
					<linearGradient id="SVGID_00000026878885059975405520000002840805999966232202_" gradientUnits="userSpaceOnUse" x1="1813.0221" y1="1287.14" x2="2029.7141" y2="1287.14">
					<stop offset="0" style="stop-color:#FEBBBA"/>
					<stop offset="1" style="stop-color:#FF928E"/>
				</linearGradient>
				<path style="fill:url(#SVGID_00000026878885059975405520000002840805999966232202_);" d="M1884.687,1170.274l-71.25,206.05      c-1.18,3.413,0.224,7.193,3.384,8.941c19.422,10.738,89.396,41.778,173.721-11.686c8.785-5.569,14.765-14.652,16.099-24.968      l23.073-178.337H1884.687z"/>
				<g>
					
						<linearGradient id="SVGID_00000177465070649878586000000000222918266567466935_" gradientUnits="userSpaceOnUse" x1="-3571.9924" y1="-571.2238" x2="-3652.9678" y2="-838.2994" gradientTransform="matrix(0.746 -0.6659 0.6659 0.746 5126.3354 -803.1727)">
						<stop offset="0" style="stop-color:#FEBBBA"/>
						<stop offset="1" style="stop-color:#FF928E"/>
					</linearGradient>
					<path style="fill:url(#SVGID_00000177465070649878586000000000222918266567466935_);" d="M2039.719,979.464       c0,0,78.24,147.278,68.21,206.772c-10.029,59.493-106.995,55.222-191.67,6.903l-59.169-159.029L2039.719,979.464z"/>
					
						<linearGradient id="SVGID_00000138547160120652364420000006763687925352727214_" gradientUnits="userSpaceOnUse" x1="-3645.0479" y1="-1036.5629" x2="-3577.3125" y2="-650.2213" gradientTransform="matrix(0.746 -0.6659 0.6659 0.746 5126.3354 -803.1727)">
						<stop offset="0" style="stop-color:#09005D"/>
						<stop offset="1" style="stop-color:#1A0F91"/>
					</linearGradient>
					<path style="fill:url(#SVGID_00000138547160120652364420000006763687925352727214_);" d="M1920.002,1115.04       c3.441-1.524,4.711-5.734,2.649-8.884c-6.268-9.575-18.019-29.112-21.767-46.216c0,0-14.066-9.008,35.799-20.943       c49.863-11.936,124.224-30.461,139.853-72.905c15.239-41.382-24.8-145.448-88.678-62.53c-2.43,3.155-7.191,3.225-9.618,0.067       c-10.472-13.63-38.003-41.919-76.226-24.768c-35.769,16.049-39.798,42.259-39.307,55.47c0.145,3.887-3.33,6.908-7.15,6.179       c-18.086-3.449-61.482-6.411-81.739,38.109c-16.684,36.669-5.84,57.427,4.036,67.579c3.2,3.288,1.798,8.704-2.589,10.048       c-11.887,3.638-27.234,13.716-25.698,41.563c2.125,38.495,45.165,35.104,57.42,33.349c2.007-0.288,4.029,0.401,5.389,1.906       c10.508,11.628,57.848,61,109.084,66.951c4.437,0.515,7.875-3.867,6.422-8.09l-22.173-64.455       c-1.03-2.994,0.402-6.278,3.297-7.559L1920.002,1115.04z"/>
					
						<linearGradient id="SVGID_00000170979619692793458460000000745035654376953012_" gradientUnits="userSpaceOnUse" x1="-3654.7681" y1="-572.466" x2="-3727.6233" y2="-812.7603" gradientTransform="matrix(0.746 -0.6659 0.6659 0.746 5126.3354 -803.1727)">
						<stop offset="0" style="stop-color:#FEBBBA"/>
						<stop offset="1" style="stop-color:#FF928E"/>
					</linearGradient>
					<path style="fill:url(#SVGID_00000170979619692793458460000000745035654376953012_);" d="M1928.915,1124.189       c0,0-55.708-38.221-59.778-6.034c-4.07,32.186,50.165,46.621,77.029,34.622L1928.915,1124.189z"/>
				</g>
			</g>
		</g>
		<g>
			<g>
				<g>
					<path style="fill:#91B3FA;" d="M2943.155,2519.694c-0.473,1.248-1.625,2.177-3.017,2.278       c-4.594,0.337-9.271,0.583-13.901,0.729c-1.902,0.061-3.468-1.458-3.498-3.392c-0.099-4.689,4.578-3.414,17.008-4.326       c1.898-0.141,3.527,1.312,3.634,3.242C2943.408,2518.74,2943.327,2519.238,2943.155,2519.694z"/>
					<path style="fill:#91B3FA;" d="M2882.933,2521.252c-8.806-0.869-17.684-2.107-26.387-3.678       c-1.868-0.338-3.091-2.156-2.73-4.061c1.012-5.188,3.933-1.8,29.886,0.764c1.891,0.187,3.251,1.899,3.039,3.825       C2886.523,2520.055,2884.8,2521.437,2882.933,2521.252z M2814.579,2507.19c-8.472-2.682-16.994-5.751-25.034-9.022       c-4.323-1.752-1.503-8.199,2.638-6.512c8.017,3.254,16.24,6.215,24.532,8.839c1.809,0.572,2.796,2.535,2.206,4.384       C2818.324,2506.747,2816.369,2507.756,2814.579,2507.19z M2750.636,2479.356c-7.687-4.355-15.297-9.079-22.622-14.043       c-3.774-2.563,0.123-8.397,3.879-5.851c7.177,4.864,14.634,9.494,22.163,13.76       C2758.018,2475.466,2754.585,2481.595,2750.636,2479.356z M2698.677,2438.344c-1.263,1.466-3.44,1.632-4.862,0.368       c-6.624-5.881-13.102-12.111-19.252-18.517c-3.161-3.294,1.803-8.227,4.963-4.936c6.026,6.276,12.374,12.382,18.863,18.145       C2699.813,2434.666,2699.941,2436.881,2698.677,2438.344z M2651.362,2387.623c-1.526,1.179-3.684,0.889-4.82-0.646       c-5.291-7.155-10.366-14.612-15.083-22.164c-2.417-3.888,3.402-7.708,5.832-3.822c4.623,7.401,9.594,14.708,14.779,21.718       C2653.204,2384.243,2652.887,2386.444,2651.362,2387.623z M2617.065,2326.109c-0.311,0.82-0.917,1.525-1.758,1.936       c-1.724,0.843-3.774,0.115-4.577-1.627c-3.742-8.122-7.211-16.489-10.312-24.87c-0.667-1.803,0.236-3.833,2.02-4.541       c1.782-0.704,3.766,0.184,4.434,1.986c3.037,8.214,6.438,16.414,10.106,24.374       C2617.388,2324.259,2617.392,2325.246,2617.065,2326.109z M2594.399,2259.931c-0.397,1.048-1.275,1.891-2.423,2.184       c-1.852,0.472-3.707-0.668-4.143-2.543c-2.031-8.735-3.746-17.668-5.096-26.551c-0.294-1.906,0.996-3.718,2.879-4.041       c1.879-0.324,3.639,0.959,3.929,2.868c1.324,8.702,3.005,17.455,4.995,26.014       C2594.705,2258.574,2594.641,2259.291,2594.399,2259.931z M2582.399,2192.525c-1.902,0.079-3.482-1.425-3.531-3.359       c-0.225-8.994-0.1-18.127,0.371-27.143c0.255-4.644,7.119-4.353,6.879,0.267c-0.462,8.832-0.583,17.78-0.362,26.592       C2585.805,2190.81,2584.305,2192.446,2582.399,2192.525z M2657.512,1968.134c-16.055,20.967-15.802,25.688-20.143,22.802       c-1.584-1.05-2.003-3.217-0.952-4.844c4.918-7.57,10.196-15.043,15.685-22.212       C2654.916,1960.2,2660.333,1964.441,2657.512,1968.134z M2587.068,2122.192c-1.871-0.319-3.112-2.123-2.77-4.032       c1.589-8.878,3.541-17.82,5.804-26.575c1.165-4.5,7.823-2.809,6.661,1.685c-2.217,8.58-4.131,17.343-5.688,26.042       C2590.727,2121.243,2588.92,2122.507,2587.068,2122.192z M2620.86,2027.612c-11.512,23.738-10.337,28.364-15.197,26.444       c-3.082-1.217-1.924-4.951-1.907-4.531c3.321-8.433,7.001-16.823,10.933-24.936c0.847-1.747,2.915-2.484,4.617-1.649       C2620.933,2023.737,2621.732,2025.754,2620.86,2027.612z"/>
					<path style="fill:#91B3FA;" d="M2695.954,1925.739c-8.606,8.036-11.524,13.026-14.8,9.675c-1.33-1.359-1.317-3.578,0.052-4.955       c8.565-8.669,11.982-13.018,14.994-9.673C2697.104,1921.79,2697.36,1924.422,2695.954,1925.739z"/>
				</g>
				<g>
					<path style="fill:#91B3FA;" d="M2947.116,1832.337c-0.531,1.401-1.908,2.365-3.45,2.279c-4.525-0.25-9.105-0.407-13.616-0.467       c-1.902-0.026-3.399-1.615-3.345-3.551c0.059-1.93,1.637-3.482,3.542-3.457c4.603,0.063,9.277,0.224,13.896,0.478       c1.897,0.105,3.33,1.756,3.198,3.688C2947.316,1831.667,2947.238,1832.014,2947.116,1832.337z"/>
					<path style="fill:#91B3FA;" d="M3235.767,2305.273c-3.7,9.01-7.816,17.971-12.238,26.633c-0.881,1.729-2.963,2.424-4.649,1.552       c-4.747-2.458-0.29-4.438,10.536-30.801c0.737-1.796,2.756-2.666,4.51-1.942       C3236.99,2301.977,3235.78,2305.694,3235.767,2305.273z M3246.687,2262.68c-5.167-1.335-1.215-4.395,3.752-32.278       c0.331-1.915,2.135-3.2,4.004-2.884c1.872,0.317,3.114,2.122,2.775,4.03c-1.699,9.542-3.822,19.162-6.31,28.594       C3250.408,2262.032,3248.513,2263.151,3246.687,2262.68z M3199.104,2372.738c-5.538,7.978-11.48,15.827-17.663,23.327       c-1.232,1.493-3.406,1.707-4.856,0.476c-4.088-3.469,0.679-4.398,16.91-27.787c1.106-1.592,3.257-1.991,4.806-0.892       C3199.847,2368.963,3200.206,2371.144,3199.104,2372.738z M3262.171,2185.431c-0.519,1.368-1.845,2.326-3.359,2.284       c-1.901-0.052-3.376-1.663-3.295-3.598c0.397-9.519,0.399-19.15,0.006-28.624c-0.08-1.937,1.395-3.589,3.295-3.699       c1.902-0.112,3.507,1.364,3.587,3.296c0.402,9.672,0.399,19.502-0.006,29.219       C3262.383,2184.702,3262.304,2185.081,3262.171,2185.431z M3257.075,2109.931c-0.419,1.105-1.374,1.978-2.599,2.224       c-1.87,0.373-3.663-0.863-4.003-2.762c-1.664-9.319-3.743-18.682-6.18-27.83c-0.496-1.862,0.592-3.8,2.428-4.333       c1.837-0.531,3.728,0.545,4.222,2.405c2.488,9.336,4.609,18.893,6.308,28.406       C3257.369,2108.696,3257.297,2109.345,3257.075,2109.931z M3235.799,2037.64c-0.325,0.858-0.977,1.591-1.872,1.989       c-1.752,0.78-3.773-0.025-4.513-1.795c-3.635-8.7-7.68-17.347-12.024-25.703c-0.881-1.701-0.233-3.826,1.451-4.753       c1.685-0.924,3.767-0.296,4.65,1.404c4.432,8.526,8.56,17.35,12.27,26.229       C3236.123,2035.878,3236.111,2036.817,3235.799,2037.64z M3199.466,1972.022c-0.235,0.619-0.643,1.182-1.212,1.603       c-1.55,1.146-3.701,0.811-4.804-0.748c-5.42-7.661-11.234-15.177-17.277-22.342c-1.23-1.457-1.053-3.669,0.402-4.943       c1.451-1.273,3.624-1.125,4.854,0.334c6.168,7.312,12.101,14.982,17.634,22.8       C3199.761,1969.713,3199.872,1970.953,3199.466,1972.022z M3149.163,1917.324c-3.573,4.107-4.281-0.734-26.601-17.523       c-3.636-2.734,0.511-8.395,4.15-5.656c7.615,5.728,15.081,11.863,22.186,18.236       C3150.307,1913.646,3150.441,1915.856,3149.163,1917.324z M3088.925,1873.56c-2.605,4.796-4.315,0.272-29.819-11.063       c-4.135-1.838-1.322-8.279,2.836-6.429c8.704,3.867,17.334,8.156,25.653,12.747       C3089.281,1869.746,3089.843,1871.901,3088.925,1873.56z M3020.448,1844.769c-0.642,1.694-2.461,2.65-4.193,2.151       c-9.002-2.586-18.186-4.809-27.295-6.606c-1.862-0.368-3.055-2.206-2.666-4.107c0.401-1.905,2.215-3.142,4.078-2.775       c9.296,1.835,18.665,4.103,27.849,6.743c1.823,0.523,2.861,2.457,2.318,4.321       C3020.512,1844.589,3020.481,1844.68,3020.448,1844.769z"/>
					<path style="fill:#91B3FA;" d="M3148.686,2430.708c-8.959,8.275-12.556,12.45-15.409,8.963       c-2.97-3.627,1.645-5.648,10.822-14.119c1.419-1.312,3.597-1.218,4.863,0.205       C3150.228,2427.181,3150.104,2429.398,3148.686,2430.708z"/>
				</g>
				<g>
					<path style="fill:#91B3FA;" d="M3061.666,2392.283l-6.104-49.808c17.866-15.15,33.532-33.27,46.146-53.946       c48.022-1.881,51.523,1.39,53.24-3.74l19.194-57.369c0.56-1.677,0.019-3.514-1.348-4.576l-38.981-30.276       c2.359-24.085,0.743-47.951-4.426-70.76l34.873-36.185c1.222-1.269,1.53-3.174,0.768-4.744l-26.104-53.758       c-0.763-1.571-2.429-2.462-4.148-2.217l-49.061,6.964c-14.623-17.948-32.201-33.609-52.335-46.13l-0.122-50.253       c-0.004-1.763-1.107-3.311-2.747-3.857l-56.11-18.656c-1.64-0.546-3.455,0.033-4.52,1.44l-30.356,40.119       c-23.643-2.036-47.131-0.03-69.633,5.575c-34.945-33.385-34.969-38.071-39.698-35.64       c-51.757,27.765-56.157,26.174-55.49,31.628l6.103,49.808c-17.868,15.149-33.531,33.27-46.146,53.945       c-47.993,1.88-51.521-1.393-53.241,3.739c-18.09,57.326-22.038,58.691-17.845,61.946l38.982,30.276       c-2.361,24.084-0.744,47.951,4.424,70.76c-32.945,35.62-37.995,36.082-35.64,40.929c26.768,52.74,24.953,56.727,30.253,55.975       l49.06-6.964c14.623,17.948,32.201,33.609,52.336,46.129c1.101,47.97-2.255,52.409,2.87,54.11       c55.838,17.459,57.344,21.555,60.629,17.216l30.357-40.118c23.641,2.035,47.13,0.028,69.633-5.575       c34.826,33.271,34.944,38.08,39.698,35.639C3057.932,2396.146,3062.333,2397.737,3061.666,2392.283z"/>
					<g>
						<path style="fill:#BDD0FB;" d="M2913.43,2232.878c-31.776-2.176-55.494-30.274-52.873-62.636        c2.631-32.357,30.606-56.918,62.382-54.744c31.775,2.178,55.494,30.275,52.875,62.636l0,0        C2973.192,2210.504,2945.198,2235.054,2913.43,2232.878z M2970.663,2177.782l0.012-0.032L2970.663,2177.782z         M2870.856,2170.948c-2.129,26.267,16.934,49.629,43.422,51.441c26.097,1.788,49.089-18.38,51.235-44.959        c2.152-26.578-17.328-49.656-43.424-51.442C2895.953,2124.198,2873,2144.417,2870.856,2170.948z"/>
					</g>
					<path style="fill:#BDD0FB;" d="M3055.738,2225.568L3055.738,2225.568c-3.091,8.151-6.854,16.03-11.228,23.489       c-1.315,2.243-3.99,3.161-6.289,2.291c-0.275-0.104-0.543-0.233-0.803-0.389c-2.445-1.459-3.229-4.685-1.763-7.186       c5.03-8.579,9.193-17.761,12.386-27.283l0,0c24.001-71.743-12.025-148.949-80.551-174.934c-1.75-0.663-3.522-1.293-5.313-1.89       c-72.399-24.071-150.547,16.589-175.143,90.04c-24.541,73.35,13.664,152.78,85.863,176.823       c42.982,14.287,71.853,1.885,76.277,3.563c4.781,1.813,4.213,8.891-0.785,10.053c-27.3,6.354-56.733,4.895-84.549-5.652       c-120.018-45.512-127.113-216.397-11.566-275.796c35.558-18.281,75.776-21.487,113.247-9.026       c1.939,0.643,3.858,1.327,5.759,2.046c34.806,13.194,62.848,38.902,79.379,72.943c17.43,35.9,19.972,76.77,7.155,115.08       C3057.162,2221.697,3056.468,2223.641,3055.738,2225.568z"/>
				</g>
			</g>
			<g>
				<path style="fill:#91B3FA;" d="M2806.934,1805.458c9.373-9.141,17.357-19.843,23.491-31.839l27.905-2.503      c3.097-0.276,1.713-2.845,10.109-34.384c0.72-2.915-1.92-2.415-24.501-17.716c0.168-13.473-1.902-26.661-5.93-39.12      l17.974-21.516c1.994-2.392-0.801-3.223-17.166-31.461c-0.508-0.842-1.494-1.268-2.454-1.063l-27.415,5.865      c-9.141-9.373-19.843-17.356-31.839-23.49c-2.949-26.617-1.275-29.2-4.244-29.936c-32.463-7.431-33.486-9.635-35.13-7.094      l-15.229,23.517c-13.472-0.169-26.662,1.902-39.119,5.93l-21.516-17.974c-2.386-1.994-3.222,0.8-31.46,17.166      c-2.562,1.542-0.373,2.948,4.802,29.869c-9.374,9.141-17.357,19.843-23.491,31.839l-27.905,2.503      c-3.1,0.278-1.713,2.845-10.109,34.385c-0.718,2.899,1.806,2.338,24.501,17.715c-0.169,13.473,1.902,26.663,5.93,39.12      l-17.974,21.515c-0.63,0.754-0.712,1.826-0.205,2.667l17.37,28.794c0.508,0.841,1.493,1.269,2.454,1.063l27.415-5.865      c9.141,9.373,19.843,17.356,31.839,23.49c2.948,26.618,1.275,29.203,4.245,29.935c32.451,7.429,33.483,9.636,35.13,7.094      l15.229-23.517c13.472,0.168,26.662-1.902,39.119-5.93c20.906,16.737,21.554,19.763,24.182,18.178l28.794-17.371      C2814.31,1833.774,2812.083,1832.242,2806.934,1805.458z"/>
				<g>
					<g>
						<path style="fill:#BDD0FB;" d="M2721.237,1752.673c-19.393,0.089-35.163-15.529-35.253-34.926        c-0.092-19.387,15.528-35.162,34.922-35.252c19.347-0.09,35.163,15.577,35.255,34.925l0,0        C2756.249,1736.769,2740.588,1752.581,2721.237,1752.673z M2750.932,1717.445l0.012-0.032L2750.932,1717.445z         M2721.186,1742.215c13.584-0.067,24.58-11.171,24.518-24.745l0,0c-0.104-21.809-26.725-32.77-42.129-17.222        C2688.24,1715.728,2699.236,1742.318,2721.186,1742.215z"/>
					</g>
					<g>
						<path style="fill:#91B3FA;" d="M2785.649,1889.641c-4.409,1.658-8.947,3.163-13.488,4.474        c-1.85,0.534-3.782-0.531-4.316-2.381c-1.345-4.655,3.978-4.349,15.352-8.619c1.803-0.678,3.812,0.235,4.489,2.037        C2788.361,1886.946,2787.459,1888.961,2785.649,1889.641z"/>
						<path style="fill:#91B3FA;" d="M2726.106,1901.253c-9.253,0.252-18.935-0.182-28.68-1.435        c-4.584-0.589-3.671-7.501,0.889-6.916c25.249,3.246,31.028-1.06,31.183,4.773        C2729.548,1899.616,2728.02,1901.201,2726.106,1901.253z M2656.869,1886.115c-0.721,1.786-2.752,2.648-4.538,1.929        c-8.855-3.574-17.507-7.881-25.712-12.805c-3.951-2.375-0.369-8.352,3.589-5.979c7.892,4.737,16.213,8.882,24.732,12.318        C2658.074,1882.843,2656.887,1886.536,2656.869,1886.115z M2595.771,1845.205c-0.173,0.457-0.444,0.884-0.814,1.248        c-1.373,1.35-3.58,1.332-4.931-0.04c-6.705-6.817-12.924-14.21-18.483-21.976c-1.118-1.564-0.758-3.747,0.805-4.864        c1.565-1.121,3.744-0.761,4.863,0.805c5.35,7.472,11.335,14.585,17.786,21.144        C2595.982,1842.525,2596.238,1843.971,2595.771,1845.205z M2555.959,1783.417c-0.34,0.896-1.046,1.65-2.011,2.019        c-1.797,0.691-3.814-0.206-4.503-2.004c-3.427-8.92-6.17-18.185-8.154-27.539c-0.397-1.886,0.804-3.735,2.689-4.135        c1.883-0.398,3.733,0.804,4.133,2.688c1.907,8.995,4.544,17.907,7.84,26.486        C2556.273,1781.765,2556.252,1782.645,2555.959,1783.417z M2540.791,1713.102c-1.923-0.084-3.416-1.71-3.333-3.634        c0.415-9.579,1.583-19.17,3.472-28.512c0.89-4.509,7.749-3.151,6.834,1.382c-1.817,8.985-2.941,18.214-3.338,27.43        C2544.333,1711.739,2542.676,1713.181,2540.791,1713.102z"/>
						<path style="fill:#91B3FA;" d="M2568.756,1627.719c-6.509,11.009-6.935,15.69-11.159,13.617        c-1.728-0.849-2.467-2.898-1.593-4.666c2.068-4.217,4.34-8.422,6.751-12.501c0.979-1.657,3.117-2.206,4.776-1.226        C2569.162,1623.909,2569.748,1626.025,2568.756,1627.719z"/>
					</g>
					<g>
						<path style="fill:#91B3FA;" d="M2686.392,1544.168c-12.591,2.507-16.323,5.305-17.594,0.772        c-0.522-1.856,0.56-3.778,2.412-4.299c4.524-1.272,9.174-2.387,13.82-3.311c1.889-0.376,3.725,0.85,4.1,2.738        C2689.506,1541.951,2688.283,1543.792,2686.392,1544.168z"/>
						<path style="fill:#91B3FA;" d="M2894.842,1765.75c-5.611-1.432-0.248-5.94,2.167-31.009c0.432-4.579,7.383-3.934,6.941,0.669        c-0.904,9.375-2.542,18.737-4.867,27.826C2898.619,1765.071,2896.731,1766.234,2894.842,1765.75z M2899.767,1693.583        c-1.902,0.289-3.681-1.017-3.971-2.922c-3.829-25.108-9.428-29.076-3.887-30.832c1.836-0.579,3.795,0.438,4.376,2.273        c2.831,8.954,4.987,18.209,6.404,27.51C2902.978,1691.516,2901.67,1693.291,2899.767,1693.583z M2875.989,1625.299        c-4.929,3.069-4.425-3.865-20.9-23.004c-3.003-3.497,2.275-8.048,5.286-4.549c6.137,7.133,11.768,14.787,16.729,22.751        C2878.12,1622.128,2877.625,1624.281,2875.989,1625.299z M2827.263,1571.849c-3.341,4.764-5.592-1.839-28.238-12.99        c-4.133-2.033-1.063-8.295,3.078-6.257c8.425,4.148,16.602,8.989,24.307,14.39        C2827.99,1568.101,2828.364,1570.275,2827.263,1571.849z M2757.342,1544.504c-24.844-5.186-30.555-1.334-30.25-7.15        c0.098-1.925,1.739-3.4,3.662-3.301c9.417,0.491,18.841,1.71,28.014,3.626c1.884,0.394,3.094,2.24,2.699,4.125        C2761.075,1543.685,2759.23,1544.899,2757.342,1544.504z"/>
						<path style="fill:#91B3FA;" d="M2882.154,1806.011c-2.276,4.136-4.74,8.232-7.323,12.173        c-1.056,1.609-3.216,2.059-4.828,1.004c-4.053-2.659,0.175-5.875,6.041-16.538c0.929-1.686,3.048-2.301,4.735-1.374        C2882.49,1802.218,2883.068,1804.357,2882.154,1806.011z"/>
					</g>
					<path style="fill:#BDD0FB;" d="M2798.313,1754.849c-1.439,2.979-4.637,3.783-7.086,2.585c-2.595-1.27-3.664-4.428-2.4-6.995       c2.356-4.816,4.214-9.928,5.519-15.198c0.057-1.136,8.792-28.381-8.688-57.449c-34.777-57.642-122.516-44.446-138.696,20.976       c-9.313,37.639,11.344,75.794,46.734,89.209c35.641,13.514,52.361-5.723,55.673,5.109c0.848,2.761-0.704,5.684-3.467,6.532       c-14.894,4.568-30.798,4.993-45.996,1.231c-46.152-11.411-74.552-58.292-63.096-104.593       c12.324-49.822,65.688-78.519,114.633-59.961c39.476,14.964,63.858,57.81,53.055,101.46l0,0.002       C2803.034,1743.661,2800.954,1749.415,2798.313,1754.849z"/>
				</g>
			</g>
		</g>
	</g>
</g>
</svg>
